<?xml version="1.0" encoding="UTF-8" standalone="no"?>
<svg
   id="Layer_1"
   data-name="Layer 1"
   viewBox="0 0 300 345"
   version="1.1"
   sodipodi:docname="skeletonFish.svg"
   xml:space="preserve"
   inkscape:version="1.4.2 (ebf0e940, 2025-05-08)"
   xmlns:inkscape="http://www.inkscape.org/namespaces/inkscape"
   xmlns:sodipodi="http://sodipodi.sourceforge.net/DTD/sodipodi-0.dtd"
   xmlns:xlink="http://www.w3.org/1999/xlink"
   xmlns="http://www.w3.org/2000/svg"
   xmlns:svg="http://www.w3.org/2000/svg"
   xmlns:rdf="http://www.w3.org/1999/02/22-rdf-syntax-ns#"
   xmlns:cc="http://creativecommons.org/ns#"
   xmlns:dc="http://purl.org/dc/elements/1.1/"><sodipodi:namedview
     id="namedview19"
     pagecolor="#505050"
     bordercolor="#ffffff"
     borderopacity="1"
     inkscape:showpageshadow="0"
     inkscape:pageopacity="0"
     inkscape:pagecheckerboard="1"
     inkscape:deskcolor="#505050"
     inkscape:zoom="1.1034377"
     inkscape:cx="111.92295"
     inkscape:cy="253.75243"
     inkscape:current-layer="Layer_1"
     showgrid="false" /><defs
     id="defs6"><inkscape:path-effect
       effect="fillet_chamfer"
       id="path-effect98"
       is_visible="true"
       lpeversion="1"
       nodesatellites_param="F,0,0,1,0,3.519964,0,1 @ F,0,0,1,0,0,0,1 @ F,0,0,1,0,0,0,1 @ F,0,0,1,0,4.5014888,0,1 @ F,0,0,1,0,0,0,1"
       radius="0"
       unit="px"
       method="auto"
       mode="F"
       chamfer_steps="1"
       flexible="false"
       use_knot_distance="true"
       apply_no_radius="true"
       apply_with_radius="true"
       only_selected="false"
       hide_knots="false" /><inkscape:path-effect
       effect="fillet_chamfer"
       id="path-effect96"
       is_visible="true"
       lpeversion="1"
       nodesatellites_param="F,0,0,1,0,0,0,1 @ F,0,0,1,0,1.751412,0,1 @ F,0,0,1,0,0,0,1 @ F,0,0,1,0,2.3080022,0,1 @ F,0,0,1,0,0,0,1 @ F,0,0,1,0,0,0,1"
       radius="0"
       unit="px"
       method="auto"
       mode="F"
       chamfer_steps="1"
       flexible="false"
       use_knot_distance="true"
       apply_no_radius="true"
       apply_with_radius="true"
       only_selected="false"
       hide_knots="false" /><linearGradient
       id="linearGradient57"
       x1="151.48"
       y1="-64.9"
       x2="152.55"
       y2="697.94"
       gradientUnits="userSpaceOnUse"><stop
         offset="0.19"
         stop-color="#c7eaf7"
         id="stop53"
         style="stop-color:#a89ab2;stop-opacity:1;" /><stop
         offset="0.63"
         stop-color="#0fafd2"
         id="stop54"
         style="stop-color:#3a2e43;stop-opacity:1;" /></linearGradient><linearGradient
       id="linearGradient58"
       x1="151.48"
       y1="-64.9"
       x2="152.55"
       y2="697.94"
       gradientUnits="userSpaceOnUse"><stop
         offset="0.19"
         stop-color="#c7eaf7"
         id="stop57"
         style="stop-color:#c8f7c7;stop-opacity:1;" /><stop
         offset="0.63"
         stop-color="#0fafd2"
         id="stop58"
         style="stop-color:#10d20f;stop-opacity:1;" /></linearGradient><linearGradient
       id="linearGradient56"
       x1="151.81"
       y1="419.74"
       x2="151.81"
       y2="231.31"
       gradientUnits="userSpaceOnUse"><stop
         offset="0"
         stop-color="#61cbed"
         id="stop55"
         style="stop-color:#2d293b;stop-opacity:1;" /><stop
         offset="0.69999999"
         stop-color="#0fafd2"
         id="stop56"
         style="stop-color:#413755;stop-opacity:0.60270268;" /></linearGradient><inkscape:path-effect
       effect="fillet_chamfer"
       id="path-effect54"
       is_visible="true"
       lpeversion="1"
       nodesatellites_param="F,0,0,1,0,3.519964,0,1 @ F,0,0,1,0,0,0,1 @ F,0,0,1,0,0,0,1 @ F,0,0,1,0,4.5014888,0,1 @ F,0,0,1,0,0,0,1"
       radius="0"
       unit="px"
       method="auto"
       mode="F"
       chamfer_steps="1"
       flexible="false"
       use_knot_distance="true"
       apply_no_radius="true"
       apply_with_radius="true"
       only_selected="false"
       hide_knots="false" /><inkscape:path-effect
       effect="fillet_chamfer"
       id="path-effect52"
       is_visible="true"
       lpeversion="1"
       nodesatellites_param="F,0,0,1,0,0,0,1 @ F,0,0,1,0,1.751412,0,1 @ F,0,0,1,0,0,0,1 @ F,0,0,1,0,2.3080022,0,1 @ F,0,0,1,0,0,0,1 @ F,0,0,1,0,0,0,1"
       radius="0"
       unit="px"
       method="auto"
       mode="F"
       chamfer_steps="1"
       flexible="false"
       use_knot_distance="true"
       apply_no_radius="true"
       apply_with_radius="true"
       only_selected="false"
       hide_knots="false" /><inkscape:path-effect
       effect="fillet_chamfer"
       id="path-effect1"
       is_visible="true"
       lpeversion="1"
       nodesatellites_param="F,0,0,1,0,3.519964,0,1 @ F,0,0,1,0,0,0,1 @ F,0,0,1,0,0,0,1 @ F,0,0,1,0,4.5014888,0,1 @ F,0,0,1,0,0,0,1"
       radius="0"
       unit="px"
       method="auto"
       mode="F"
       chamfer_steps="1"
       flexible="false"
       use_knot_distance="true"
       apply_no_radius="true"
       apply_with_radius="true"
       only_selected="false"
       hide_knots="false" /><inkscape:path-effect
       effect="fillet_chamfer"
       id="path-effect30"
       is_visible="true"
       lpeversion="1"
       nodesatellites_param="F,0,0,1,0,0,0,1 @ F,0,0,1,0,10.34456,0,1 @ F,0,0,1,0,0,0,1"
       radius="0"
       unit="px"
       method="auto"
       mode="F"
       chamfer_steps="1"
       flexible="false"
       use_knot_distance="true"
       apply_no_radius="true"
       apply_with_radius="true"
       only_selected="false"
       hide_knots="false" /><inkscape:path-effect
       effect="fillet_chamfer"
       id="path-effect28"
       is_visible="true"
       lpeversion="1"
       nodesatellites_param="F,0,0,1,0,0,0,1 @ F,0,0,1,0,10.34456,0,1 @ F,0,0,1,0,0,0,1"
       radius="0"
       unit="px"
       method="auto"
       mode="F"
       chamfer_steps="1"
       flexible="false"
       use_knot_distance="true"
       apply_no_radius="true"
       apply_with_radius="true"
       only_selected="false"
       hide_knots="false" /><inkscape:path-effect
       effect="fillet_chamfer"
       id="path-effect27"
       is_visible="true"
       lpeversion="1"
       nodesatellites_param="F,0,0,1,0,0,0,1 @ F,0,0,1,0,1.751412,0,1 @ F,0,0,1,0,0,0,1 @ F,0,0,1,0,2.3080022,0,1 @ F,0,0,1,0,0,0,1 @ F,0,0,1,0,0,0,1"
       radius="0"
       unit="px"
       method="auto"
       mode="F"
       chamfer_steps="1"
       flexible="false"
       use_knot_distance="true"
       apply_no_radius="true"
       apply_with_radius="true"
       only_selected="false"
       hide_knots="false" /><inkscape:path-effect
       effect="fillet_chamfer"
       id="path-effect23"
       is_visible="true"
       lpeversion="1"
       nodesatellites_param="F,0,0,1,0,0,0,1 @ F,0,0,1,0,1.751412,0,1 @ F,0,0,1,0,0,0,1 @ F,0,0,1,0,2.3080022,0,1 @ F,0,0,1,0,0,0,1 @ F,0,0,1,0,0,0,1"
       radius="0"
       unit="px"
       method="auto"
       mode="F"
       chamfer_steps="1"
       flexible="false"
       use_knot_distance="true"
       apply_no_radius="true"
       apply_with_radius="true"
       only_selected="false"
       hide_knots="false" /><inkscape:path-effect
       effect="fillet_chamfer"
       id="path-effect22"
       is_visible="true"
       lpeversion="1"
       nodesatellites_param="F,0,0,1,0,13.685491,0,1 @ F,0,0,1,0,15.997183,0,1 @ F,0,0,1,0,0,0,1 @ F,0,0,1,0,0,0,1 @ F,0,0,1,0,0,0,1 @ F,0,0,1,0,0,0,1 @ F,0,0,1,0,0,0,1 @ F,0,0,1,0,0,0,1 @ F,0,0,1,0,0,0,1"
       radius="0"
       unit="px"
       method="auto"
       mode="F"
       chamfer_steps="1"
       flexible="false"
       use_knot_distance="true"
       apply_no_radius="true"
       apply_with_radius="true"
       only_selected="false"
       hide_knots="false" /><inkscape:path-effect
       effect="fillet_chamfer"
       id="path-effect21"
       is_visible="true"
       lpeversion="1"
       nodesatellites_param="F,0,0,1,0,12.147682,0,1 @ F,0,0,1,0,0,0,1 @ F,0,0,1,0,11.031414,0,1 @ F,0,0,1,0,0,0,1 @ F,0,0,1,0,0,0,1 @ F,0,0,1,0,0,0,1 @ F,0,0,1,0,0,0,1"
       radius="0"
       unit="px"
       method="auto"
       mode="F"
       chamfer_steps="1"
       flexible="false"
       use_knot_distance="true"
       apply_no_radius="true"
       apply_with_radius="true"
       only_selected="false"
       hide_knots="false" /><linearGradient
       id="linearGradient20"
       x1="23.95"
       y1="211.82"
       x2="230.22"
       y2="211.82"
       gradientTransform="matrix(-1, 0, 0, 1, 300, 0)"
       gradientUnits="userSpaceOnUse"><stop
         offset="0.19"
         stop-color="#f18221"
         id="stop19"
         style="stop-color:#f1ddc9;stop-opacity:1;" /><stop
         offset="0.85000002"
         stop-color="#d25927"
         id="stop20"
         style="stop-color:#c0aa9c;stop-opacity:1;" /></linearGradient><style
       id="style1">.cls-1{fill-opacity:0.8;fill:url(#linear-gradient);}.cls-2{fill:#61cbed;}.cls-3{fill:#0fafd2;}.cls-4{fill-opacity:0.9;fill:url(#linear-gradient-2);}.cls-5{fill:#04859b;opacity:0.5;}.cls-6{fill:none;stroke:#8e281d;stroke-miterlimit:10;stroke-width:12px;}.cls-7{fill:#f18221;}.cls-8{fill:#d25927;}.cls-9{fill:url(#linear-gradient-3);}.cls-10{fill:#fff;}.cls-11{fill:#414042;}</style><linearGradient
       id="linear-gradient"
       x1="151.48"
       y1="-64.9"
       x2="152.55"
       y2="697.94"
       gradientUnits="userSpaceOnUse"><stop
         offset="0.19"
         stop-color="#c7eaf7"
         id="stop1" /><stop
         offset="0.63"
         stop-color="#0fafd2"
         id="stop2" /></linearGradient><linearGradient
       id="linear-gradient-2"
       x1="151.81"
       y1="419.74"
       x2="151.81"
       y2="231.31"
       gradientUnits="userSpaceOnUse"><stop
         offset="0"
         stop-color="#61cbed"
         id="stop3" /><stop
         offset="0.7"
         stop-color="#0fafd2"
         id="stop4" /></linearGradient><linearGradient
       id="linear-gradient-3"
       x1="23.95"
       y1="211.82"
       x2="230.22"
       y2="211.82"
       gradientTransform="matrix(-1,0,0,1,298.19,0)"
       gradientUnits="userSpaceOnUse"><stop
         offset="0.19"
         stop-color="#f18221"
         id="stop5" /><stop
         offset="0.85"
         stop-color="#d25927"
         id="stop6" /></linearGradient><style
       id="style1-9">.cls-1{fill-opacity:0.8;fill:url(#linear-gradient);}.cls-2{fill:#61cbed;}.cls-3{fill:#0fafd2;}.cls-4{fill-opacity:0.9;fill:url(#linear-gradient-2);}.cls-5{fill:#04859b;opacity:0.5;}.cls-6{fill:none;stroke:#8e281d;stroke-miterlimit:10;stroke-width:12px;}.cls-7{fill:#f18221;}.cls-8{fill:#d25927;}.cls-9{fill:url(#linear-gradient-3);}.cls-10{fill:#fff;}.cls-11{fill:#414042;}</style><linearGradient
       inkscape:collect="always"
       xlink:href="#linearGradient56"
       id="linearGradient63"
       gradientUnits="userSpaceOnUse"
       gradientTransform="translate(-1.81,1.7179777e-5)"
       x1="151.81"
       y1="419.74"
       x2="151.81"
       y2="231.31" /><linearGradient
       inkscape:collect="always"
       xlink:href="#linearGradient56"
       id="linearGradient64"
       gradientUnits="userSpaceOnUse"
       gradientTransform="translate(-1.81,1.7179777e-5)"
       x1="151.81"
       y1="419.74"
       x2="151.81"
       y2="231.31" /><linearGradient
       inkscape:collect="always"
       xlink:href="#linearGradient57"
       id="linearGradient65"
       gradientUnits="userSpaceOnUse"
       gradientTransform="translate(-1.81,1.7179777e-5)"
       x1="151.48"
       y1="-64.9"
       x2="152.55"
       y2="697.94" /><linearGradient
       inkscape:collect="always"
       xlink:href="#linearGradient20"
       id="linearGradient86"
       gradientUnits="userSpaceOnUse"
       gradientTransform="matrix(-1,0,0,1,298.14489,-0.59595832)"
       x1="49.243042"
       y1="211.58582"
       x2="183.84929"
       y2="211.58582" /><linearGradient
       inkscape:collect="always"
       xlink:href="#linearGradient56"
       id="linearGradient95"
       gradientUnits="userSpaceOnUse"
       gradientTransform="translate(-1.81,1.7179777e-5)"
       x1="151.81"
       y1="419.74"
       x2="151.81"
       y2="231.31" /></defs><title
     id="title6">blook_goldfish</title><path
     class="cls-4"
     d="M 263.62,298.39002 H 36.38 A 36.38,36.38 0 0 1 0,262.00002 v 46.61 a 36.38,36.38 0 0 0 36.38,36.39 h 227.24 a 36.38,36.38 0 0 0 36.38,-36.38 v -46.62 a 36.38,36.38 0 0 1 -36.38,36.39 z"
     id="path63"
     style="fill:url(#linearGradient63)" /><path
     class="cls-4"
     d="M 263.62,298.39002 H 36.38 A 36.38,36.38 0 0 1 0,262.00002 v 46.61 a 36.38,36.38 0 0 0 36.38,36.39 h 227.24 a 36.38,36.38 0 0 0 36.38,-36.38 v -46.62 a 36.38,36.38 0 0 1 -36.38,36.39 z"
     id="path64"
     style="fill:url(#linearGradient64)" /><path
     class="cls-1"
     d="m 275.25,46.910017 v -10.53 A 36.38,36.38 0 0 0 238.87,1.7179777e-5 H 61.19 A 36.38,36.38 0 0 0 24.76,36.380017 v 10.53 A 36.39,36.39 0 0 0 0,81.380017 V 262.00002 a 36.38,36.38 0 0 0 36.38,36.38 h 227.24 a 36.38,36.38 0 0 0 36.38,-36.38 V 81.380017 a 36.38,36.38 0 0 0 -24.75,-34.47 z"
     id="path65"
     style="fill:url(#linearGradient65)" /><g
     id="g36"
     transform="translate(-304.83396,-4.6753674)" /><path
     class="cls-2"
     d="M 245.44,72.330017 H 50.94 c -17.2,0 -31.14,14.93 -31.14,33.350003 v 141.52 0 42.74 c 0,18.42 13.94,33.35 31.14,33.35 h 194.5 c 17.2,0 31.14,-14.93 31.14,-33.35 v -184.26 c 0,-18.420003 -13.94,-33.350003 -31.14,-33.350003 z"
     id="path68"
     style="fill:#4f4559;fill-opacity:1" /><path
     class="cls-3"
     d="M 235.26,82.640017 H 61.12 c -15.39,0 -27.87,6.19 -27.87,13.83 v 2.63 c 0,7.640003 12.48,13.830003 27.87,13.830003 h 174.14 c 15.39,0 27.87,-6.19 27.87,-13.830003 v -2.63 c 0,-7.64 -12.48,-13.83 -27.87,-13.83 z"
     id="path71"
     style="fill:#3f3747;fill-opacity:1" /><path
     class="cls-5"
     d="M 220.78,18.660017 H 75.6 c -12.84,0 -23.25,5.74 -23.25,12.83 v 2.44 c 0,7.09 10.41,12.83 23.25,12.83 h 145.18 c 12.84,0 23.25,-5.74 23.25,-12.83 v -2.44 c 0,-7.09 -10.41,-12.83 -23.25,-12.83 z"
     id="path72"
     style="fill:#7a609b;fill-opacity:1" /><g
     id="path73"
     style="opacity:1"><path
       style="baseline-shift:baseline;display:inline;overflow:visible;vector-effect:none;fill:#997f66;stroke-linecap:round;stroke-linejoin:round;paint-order:stroke fill markers;enable-background:accumulate;stop-color:#000000;stop-opacity:1"
       d="m 150.71094,249.93945 a 6.0006,6.0006 0 0 0 -8.33594,5.99414 c 0.98121,12.32886 -6.2793,23.625 -6.2793,23.625 a 6.0006,6.0006 0 0 0 5.62696,9.3125 c 0,0 24.77971,-2.57829 46.55859,-11.85937 a 6.0006,6.0006 0 0 0 0.002,-11.03711 z m 3.27539,14.44532 15.38476,6.5664 c -7.5092,2.18512 -12.6282,3.21798 -17.95117,4.16016 1.10913,-3.1144 2.03844,-6.72832 2.56641,-10.72656 z"
       id="path5" /><path
       style="baseline-shift:baseline;display:inline;overflow:visible;vector-effect:none;fill:#ddc8b6;stroke-linecap:round;stroke-linejoin:round;paint-order:stroke fill markers;enable-background:accumulate;stop-color:#000000;stop-opacity:1"
       d="m 185.92884,271.49249 c -20.61554,8.78532 -44.85313,11.41316 -44.85313,11.41316 0,0 8.46203,-12.59361 7.27989,-27.44714 z"
       id="path6" /></g><g
     id="path74"
     style="opacity:1"><path
       style="baseline-shift:baseline;display:inline;overflow:visible;vector-effect:none;fill:#997f66;stroke-linecap:round;stroke-linejoin:round;paint-order:stroke fill markers;enable-background:accumulate;stop-color:#000000;stop-opacity:1"
       d="m 107.3125,213.45898 a 6.0006,6.0006 0 0 0 -5.6543,9.29297 c 2.24744,3.36734 3.44501,10.40484 3.5,16.45508 0.055,6.05024 -0.6875,10.86133 -0.6875,10.86133 a 6.0006,6.0006 0 0 0 11.32422,3.54687 c 0,0 2.54079,-5.20999 4.80469,-11.84179 2.26389,-6.63181 4.6743,-14.53161 3.19336,-22.23438 a 6.0006,6.0006 0 0 0 -5.22852,-4.83008 z"
       id="path1" /><path
       style="baseline-shift:baseline;display:inline;overflow:visible;vector-effect:none;fill:#ddc8b6;stroke-linecap:round;stroke-linejoin:round;paint-order:stroke fill markers;enable-background:accumulate;stop-color:#000000;stop-opacity:1"
       d="m 117.90146,220.67229 c 2.05244,10.67531 -7.5015,30.31857 -7.5015,30.31857 0,0 3.27249,-21.04588 -3.75075,-31.56882 z"
       id="path2" /></g><g
     id="path75"
     style="opacity:1"><path
       style="baseline-shift:baseline;display:inline;overflow:visible;vector-effect:none;fill:#997f66;stroke-linecap:round;stroke-linejoin:round;paint-order:stroke fill markers;enable-background:accumulate;stop-color:#000000;stop-opacity:1"
       d="m 129.58594,205.76758 a 6.0006,6.0006 0 0 0 -5.60742,6.46679 c 1.17859,14.76328 -0.21485,28.87606 -5.22852,42.42579 a 6.0006,6.0006 0 0 0 10.62891,5.39843 c 8.20485,-12.37187 15.21626,-25.72997 14.96093,-40.87109 a 6.0006,6.0006 0 0 0 -1.98828,-4.36133 l -8.38281,-7.5332 a 6.0006,6.0006 0 0 0 -4.38281,-1.52539 z"
       id="path3" /><path
       style="baseline-shift:baseline;display:inline;overflow:visible;vector-effect:none;fill:#ddc8b6;stroke-linecap:round;stroke-linejoin:round;paint-order:stroke fill markers;enable-background:accumulate;stop-color:#000000;stop-opacity:1"
       d="m 138.34066,219.28906 c 0.22246,13.19214 -6.00141,25.44881 -13.96266,37.45336 5.36067,-14.48751 6.81371,-29.54208 5.58074,-44.98644 z"
       id="path4" /></g><g
     id="path76"
     style="opacity:1"><path
       style="baseline-shift:baseline;display:inline;overflow:visible;vector-effect:none;fill:#997f66;stroke-linecap:round;stroke-linejoin:round;paint-order:stroke fill markers;enable-background:accumulate;stop-color:#000000;stop-opacity:1"
       d="m 123.34961,154.22266 a 6.0006,6.0006 0 0 0 -5.38672,8.30273 c 5.5575,13.33591 7.51813,27.38278 6.9375,42.18164 a 6.0006,6.0006 0 0 0 10.18359,4.53125 l 8.07032,-7.86523 a 6.0006,6.0006 0 0 0 1.81054,-4.43946 c -0.35716,-15.13905 -7.90312,-28.20245 -16.60156,-40.23242 a 6.0006,6.0006 0 0 0 -5.01367,-2.47851 z"
       id="path7" /><path
       style="baseline-shift:baseline;display:inline;overflow:visible;vector-effect:none;fill:#ddc8b6;stroke-linecap:round;stroke-linejoin:round;paint-order:stroke fill markers;enable-background:accumulate;stop-color:#000000;stop-opacity:1"
       d="m 138.96614,197.07571 c -0.31119,-13.19034 -7.02561,-25.18531 -15.46579,-36.8581 5.94214,14.25889 8.00277,29.24238 7.39535,44.72396 z"
       id="path8" /></g><g
     id="path77"
     style="opacity:1"><path
       style="baseline-shift:baseline;display:inline;overflow:visible;vector-effect:none;fill:#997f66;stroke-linecap:round;stroke-linejoin:round;paint-order:stroke fill markers;enable-background:accumulate;stop-color:#000000;stop-opacity:1"
       d="m 111.41797,167.25 a 6.0006,6.0006 0 0 0 -6.94727,6.83203 c 0,0 0.7425,4.81109 0.6875,10.86133 -0.055,6.05024 -1.25256,13.08774 -3.5,16.45508 a 6.0006,6.0006 0 0 0 5.6543,9.29297 l 11.25195,-1.25 a 6.0006,6.0006 0 0 0 5.22852,-4.83008 c 1.48094,-7.70277 -0.92947,-15.60257 -3.19336,-22.23438 -2.2639,-6.6318 -4.80469,-11.84179 -4.80469,-11.84179 A 6.0006,6.0006 0 0 0 111.41797,167.25 Z"
       id="path9" /><path
       style="baseline-shift:baseline;display:inline;overflow:visible;vector-effect:none;fill:#ddc8b6;stroke-linecap:round;stroke-linejoin:round;paint-order:stroke fill markers;enable-background:accumulate;stop-color:#000000;stop-opacity:1"
       d="m 117.90146,203.47825 c 2.05244,-10.67531 -7.5015,-30.31857 -7.5015,-30.31857 0,0 3.27249,21.04588 -3.75075,31.56882 z"
       id="path10" /></g><path
     style="baseline-shift:baseline;display:inline;overflow:visible;vector-effect:none;fill:#997f66;stroke-linecap:round;stroke-linejoin:round;paint-order:stroke fill markers;enable-background:accumulate;stop-color:#000000;stop-opacity:1;opacity:1"
     d="m 88.873047,188.50781 c -2.028959,-0.10591 -4.076579,0.16371 -6.042969,0.8125 a 6.1280127,6.1280127 0 0 0 -0.002,0 c -3.932103,1.29781 -7.253469,4.046 -9.150391,7.75977 -3.917903,7.6697 -0.259923,17.2014 7.541016,20.72851 31.53911,14.25847 55.60713,8.69601 72.74805,4.73243 8.33568,-1.92735 13.94222,-10.37455 11.75976,-18.72266 -2.18161,-8.34679 -10.88433,-13.12933 -19.21875,-11.20313 -18.10141,4.18569 -27.53238,8.26394 -51.708982,-2.66601 -1.887733,-0.85381 -3.896822,-1.3355 -5.925781,-1.44141 z m -0.640625,12.24805 c 0.529006,0.0276 1.051645,0.14864 1.517578,0.35937 26.59412,12.02289 42.02495,7.48437 59.51758,3.43946 2.22506,-0.51425 4.18714,0.77574 4.60156,2.36133 a 6.1280127,6.1280127 0 0 0 0,0.002 c 0.41461,1.58591 -0.43668,3.16904 -2.66211,3.68359 -17.24077,3.98668 -36.49802,8.89907 -64.939452,-3.95898 -1.999391,-0.90401 -2.467318,-2.43877 -1.675781,-3.98828 0.364797,-0.7142 1.082273,-1.36663 2.078125,-1.69532 0.498023,-0.16431 1.033493,-0.2307 1.5625,-0.20312 z"
     id="path78" /><path
     style="baseline-shift:baseline;display:inline;overflow:visible;vector-effect:none;fill:#997f66;stroke-linecap:round;stroke-linejoin:round;paint-order:stroke fill markers;enable-background:accumulate;stop-color:#000000;stop-opacity:1;opacity:1"
     d="m 159.00586,121.97461 c -1.39128,0.0474 -3.30542,0.28737 -5.15625,1.94336 -3.72157,3.32978 -3.58454,6.66601 -3.84766,10 -0.26312,3.33399 -0.11988,6.91373 0.14453,10.33203 0.52883,6.8366 1.61914,13.04297 1.61914,13.04297 a 6.0006,6.0006 0 0 0 6.2793,4.95703 l 51.98438,-3.21289 a 6.0006,6.0006 0 0 0 2.76757,-11.10352 c 0,0 -11.86546,-7.28227 -24.41406,-14.07617 -6.2743,-3.39695 -12.70025,-6.67415 -18.13867,-8.9375 -2.71921,-1.13167 -5.15701,-2.01899 -7.51367,-2.54101 -1.17833,-0.26101 -2.33333,-0.45174 -3.72461,-0.4043 z m 2.99023,12.76367 c 1.10099,0.34624 2.07598,0.61217 3.63672,1.26172 4.71879,1.96385 10.94941,5.11423 17.03711,8.41016 2.52187,1.36535 4.45224,2.52759 6.83203,3.87304 l -26.57226,1.64258 c -0.32667,-2.25744 -0.55571,-3.204 -0.81836,-6.59961 -0.23685,-3.06194 -0.32464,-6.20552 -0.14649,-8.46289 0.005,-0.0597 0.0251,-0.0669 0.0312,-0.125 z"
     id="path79" /><path
     style="fill:#f1ddc9;fill-opacity:1;stroke:none;stroke-width:4.92005;stroke-linecap:round;stroke-linejoin:round;stroke-dasharray:none;stroke-opacity:1;paint-order:stroke fill markers"
     d="m 209.65971,153.04858 c 0,0 -47.08617,-28.8847 -51.80988,-24.65827 -4.35847,3.89963 -0.17421,27.87077 -0.17421,27.87077 z"
     id="path80"
     sodipodi:nodetypes="cscc" /><path
     style="baseline-shift:baseline;display:inline;overflow:visible;vector-effect:none;fill:#ddc8b6;stroke-width:1.02123;stroke-linecap:round;stroke-linejoin:round;paint-order:stroke fill markers;enable-background:accumulate;stop-color:#000000"
     d="m 84.74934,195.13973 a 9.8451912,9.2608423 0 0 0 -5.61442,4.72792 9.8451912,9.2608423 0 0 0 4.60876,12.35759 c 29.99027,13.55826 51.65269,8.32196 68.84353,4.34683 a 9.8451912,9.2608423 0 0 0 7.21031,-11.20463 9.8451912,9.2608423 0 0 0 -11.90956,-6.78236 c -17.79702,4.1153 -30.22829,8.42378 -55.61365,-3.05264 a 9.8451912,9.2608423 0 0 0 -7.52497,-0.39271 z"
     id="path81" /><path
     id="path82"
     style="fill:#f1ddc9;fill-opacity:1;stroke:none;stroke-width:4.8;stroke-linecap:round;stroke-linejoin:round;stroke-dasharray:none;stroke-opacity:1;paint-order:stroke fill markers"
     d="m 94.748594,196.61916 -0.619141,6.0293 c 4.162577,4.72646 9.142767,7.00006 14.929687,6.85351 7.299,0.80996 14.57048,1.75756 22.81798,-2.17498 7.85009,2.66174 10.65737,0.8898 14.21052,-1.35453 l 0.76838,-7.14822 c -16.67196,3.90073 -28.8464,7.69727 -52.107426,-2.20508 z"
     sodipodi:nodetypes="ccccccc" /><path
     style="baseline-shift:baseline;display:inline;overflow:visible;vector-effect:none;fill:#997f66;stroke-linecap:round;stroke-linejoin:round;paint-order:stroke fill markers;enable-background:accumulate;stop-color:#000000;stop-opacity:1;opacity:1"
     d="m 57.175781,167.97852 a 6.0006,6.0006 0 0 0 -4.685547,10.50195 c 0,0 11.45837,10.49196 11.882813,23.72656 -4.609439,11.8716 -16.453125,17.98047 -16.453125,17.98047 a 6.0006,6.0006 0 0 0 0.83789,11.12695 c 0,0 9.354852,2.98751 20.060547,2.82422 5.352848,-0.0816 11.208748,-0.91053 16.609375,-3.7207 5.400627,-2.81017 10.183918,-7.92239 12.3125,-15.07617 1.186262,-3.98681 1.593813,-8.72508 1.898438,-12.87305 0.304625,-4.14797 0.384768,-7.54297 0.384768,-7.54297 a 6.0006,6.0006 0 0 0 -0.222659,-1.76367 C 96.51605,181.45542 85.01341,175.88652 75.482422,172.49219 65.951434,169.09785 57.175781,167.97852 57.175781,167.97852 Z m 14.384766,15.86328 c 7.792404,2.79434 14.698149,7.39235 16.40039,12.05859 -0.02557,0.86135 -0.06102,2.55766 -0.291015,5.68945 -0.280845,3.82417 -0.890343,8.51088 -1.431641,10.33008 -1.255763,4.2204 -3.343879,6.28951 -6.349609,7.85352 -3.00573,1.564 -7.09045,2.30173 -11.253906,2.36523 -1.125375,0.0172 -2.183324,-0.10076 -3.277344,-0.16406 4.124834,-4.09598 8.300995,-9.60023 10.779297,-16.79688 a 6.0006,6.0006 0 0 0 0.328125,-1.89257 c 0.07621,-7.54437 -2.119942,-14.12343 -4.904297,-19.44336 z"
     id="path83" /><path
     style="baseline-shift:baseline;display:inline;overflow:visible;vector-effect:none;fill:#997f66;enable-background:accumulate;stop-color:#000000;stop-opacity:1;opacity:1"
     d="m 169.08594,145.80273 c -3.54475,0 -7.14958,0.76663 -10.64063,2.08594 -5.43939,2.05562 -9.26876,6.26894 -12.50195,10.78711 -3.23319,4.51817 -5.69764,9.43462 -7.01758,13.94141 -3.30571,11.28706 -2.20522,22.50406 4.42774,31.72851 3.92133,5.45338 3.8169,9.99299 0.81054,16.63477 -5.82346,12.86546 -6.31477,29.85799 1.55469,42.95703 4.31206,7.1776 12.08206,12.7168 21.18945,12.7168 h 41.00586 c 21.42495,0 38.85938,-17.43681 38.85938,-38.86133 v -10.26953 c 0.73824,-0.0142 1.4619,0.0319 2.21093,-0.0332 4.74987,-0.41295 8.29704,-6.06081 6.70704,-10.49414 -0.62,-1.72871 -1.50187,-4.06465 -2.9375,-6.44726 1.5878,-2.81587 2.30872,-5.57389 2.79101,-7.40821 0.55518,-2.11159 0.12794,-4.58699 -1.2539,-6.39843 -1.38185,-1.81145 -3.67848,-2.88737 -5.875,-2.89649 -0.57098,-0.002 -1.08835,0.0768 -1.64258,0.10157 v -9.28321 c 0,-21.42452 -17.43443,-38.86133 -38.85938,-38.86133 z m 0,12 h 38.82812 c 14.98394,0 26.85938,11.87697 26.85938,26.86133 v 23.41602 l 5.62304,-1.16211 -3.95312,3.64648 4.70508,4.41407 c 0.014,0.0131 0.0515,0.10773 0.0664,0.12304 l -6.4414,-1.17383 v 23.86524 c 0,14.98436 -11.87545,26.86133 -26.85938,26.86133 H 166.9082 c -3.07756,0 -8.94894,-3.64497 -10.90234,-6.89649 -5.19104,-8.6407 -5.06795,-22.64252 -0.91016,-31.82812 4.14367,-9.15438 4.33869,-19.77467 -2,-28.58985 -4.5034,-6.26288 -5.24452,-12.50549 -2.65429,-21.34961 0.80097,-2.73483 2.81559,-6.91177 5.26171,-10.33007 2.44613,-3.4183 5.49631,-5.98452 6.98438,-6.54688 2.28251,-0.86259 4.70602,-1.31055 6.39844,-1.31055 z"
     id="path84" /><path
     class="cls-7"
     d="m 538.65372,207.40055 c 5.41505,-1.09672 10.59324,-2.90404 16.38187,-2.88001 0.96586,0.004 1.59628,0.83425 1.35036,1.76959 -0.63161,2.40222 -2.04934,6.73956 -4.48735,8.98698 2.26983,2.12936 3.91624,5.98808 4.7882,8.41932 0.42986,1.19854 -0.30715,2.38025 -1.57665,2.49062 -5.70002,0.49556 -11.09206,-0.85681 -16.34294,-3.05608 l 7.84251,-7.84251 z"
     id="path85"
     style="fill:#f1ddc9;fill-opacity:1;stroke-width:1.13495"
     sodipodi:nodetypes="ccccccc"
     transform="translate(-306.64396,-4.6753502)" /><path
     id="path86"
     style="fill:url(#linearGradient86)"
     class="cls-9"
     d="m 144.68382,174.3039 c -2.94798,10.06559 -2.02608,18.79504 3.5421,26.53871 5.13001,7.13428 4.97863,14.71416 1.40362,22.61224 -4.99063,11.02553 -5.29844,26.52385 1.23181,37.39372 3.13273,5.21456 9.9551,9.80616 16.04758,9.80616 h 41.0057 c 18.20444,0 32.85938,-14.65689 32.85938,-32.86133 v -53.12891 c 0,-18.20444 -14.65494,-32.86132 -32.85938,-32.86132 h -38.82888 c -2.61858,0 -5.63221,0.60612 -8.51899,1.69707 -6.92747,2.61798 -13.76203,13.56204 -15.88294,20.80366 z"
     sodipodi:nodetypes="scssssssss" /><path
     id="path87"
     style="fill:#f1ddc9;fill-opacity:1;stroke-width:0.846639"
     class="cls-9"
     d="m 151.92601,179.96675 c -2.49588,8.52192 -1.71536,15.91262 2.99888,22.46871 4.34327,6.04017 4.2151,12.4576 1.18836,19.14441 -4.22527,9.33466 -4.48587,22.45615 1.04289,31.65902 2.6523,4.41484 8.42838,8.30227 13.58651,8.30227 h 34.71705 c 15.4126,0 27.82006,-12.4091 27.82006,-27.8217 v -44.98103 c 0,-15.4126 -12.40746,-27.82169 -27.82006,-27.82169 h -32.87406 c -2.21699,0 -4.76846,0.51316 -7.21251,1.43681 -5.86507,2.21648 -11.65148,11.48215 -13.44712,17.6132 z"
     sodipodi:nodetypes="scssssssss" /><g
     id="g88"
     transform="matrix(0.89008915,0,0,0.89008915,-107.64939,69.273977)"><circle
       class="cls-8"
       cx="336.16653"
       cy="149.19901"
       r="31.15"
       id="circle87"
       style="fill:#997f66;fill-opacity:1" /><circle
       class="cls-10"
       cx="336.16653"
       cy="157.849"
       r="31.15"
       id="circle88" /><path
       class="cls-11"
       d="m 324.55654,157.42901 a 19.6,19.6 0 1 0 19.6,-19.6 19.09,19.09 0 0 0 -2.84,0.21 11.18,11.18 0 0 1 1.86,6.2 11.29,11.29 0 0 1 -18.16,9 19.47,19.47 0 0 0 -0.46,4.19 z m 23.33,8.16 a 4.66,4.66 0 1 1 4.66,4.66 4.66,4.66 0 0 1 -4.66,-4.66 z"
       id="path88" /></g><path
     style="baseline-shift:baseline;display:inline;overflow:visible;vector-effect:none;fill:#997f66;stroke-linecap:round;stroke-linejoin:round;paint-order:stroke fill markers;enable-background:accumulate;stop-color:#000000"
     d="m 249.76907,209.6555 c -3.27596,0.5825 -7.59201,1.21818 -11.39729,0.97576 -2.50595,-0.15964 -7.3634,-1.58981 -7.3634,-1.58981 -1.30899,-0.11708 -2.46503,0.8492 -2.58203,2.1582 -0.11708,1.30899 0.84921,2.46503 2.15821,2.58203 0,0 5.7654,0.6138 8.6289,0.32227 3.83746,-0.39069 11.23952,-2.75348 11.23952,-2.75348 1.28362,-0.28155 2.1631,-0.67774 1.88158,-1.96137 -0.28155,-1.28362 -1.77431,0.12572 -2.56549,0.2664 z"
     id="path89"
     sodipodi:nodetypes="sacscacss" /><path
     id="path90"
     style="fill:#c8b2a3;fill-opacity:1;stroke:none;stroke-width:12;stroke-linecap:round;stroke-linejoin:round;stroke-dasharray:none;stroke-opacity:1;paint-order:stroke fill markers"
     d="m 150.01711,262.81862 c -0.20817,1.81242 -0.52963,3.55528 -0.92336,5.20482 2.55579,6.03992 7.21497,9.45023 12.95508,11.50976 4.17677,-0.94699 8.74944,-2.12523 13.41197,-3.57407 2.37383,-0.73764 2.26779,-1.56649 -0.19669,-1.89194 -5.20599,-0.68749 -13.62522,-2.18169 -17.84199,-5.0029 -1.93341,-1.29354 -4.01735,-4.34047 -5.43496,-6.68778 -1.00441,-1.66313 -1.7483,-1.48859 -1.97005,0.44211 z"
     sodipodi:nodetypes="ccccac"
     transform="translate(-1.81,1.7179777e-5)" /><path
     style="fill:#ddc8b6;fill-opacity:1;stroke:none;stroke-width:12;stroke-linecap:round;stroke-linejoin:round;stroke-dasharray:none;stroke-opacity:1;paint-order:stroke fill markers"
     d="m 91.98941,213.63084 c -6.76869,22.74836 -41.44956,11.95477 -41.44956,11.95477 0,0 14.67843,-7.12754 19.9245,-22.3614 0.17234,-17.0601 -14.06314,-29.29502 -14.06314,-29.29502 0,0 32.97464,4.28803 37.62292,20.85437 0,0 -0.30716,13.04127 -2.03472,18.84728 z"
     id="path91"
     sodipodi:nodetypes="sccccs" /><path
     id="path92"
     style="fill:#f1ddc9;fill-opacity:1;stroke-width:23.406;stroke-linecap:round;stroke-linejoin:round;paint-order:stroke fill markers"
     d="m 56.400938,173.92971 c 0,0 1.30375,1.1208 3.117187,3.15625 8.562955,2.61232 17.3058,3.69839 24.656599,13.32835 12.206706,15.99147 7.620272,17.79357 7.833635,23.15016 1.710138,-5.83865 2.015625,-18.78125 2.015625,-18.78125 -4.64828,-16.56634 -37.623046,-20.85351 -37.623046,-20.85351 z"
     sodipodi:nodetypes="ccsccc" /><path
     style="baseline-shift:baseline;display:inline;overflow:visible;vector-effect:none;fill:#997f66;stroke-linecap:round;stroke-linejoin:round;paint-order:stroke fill markers;enable-background:accumulate;stop-color:#000000;stop-opacity:1;opacity:1"
     d="m 140.1543,194.67969 a 2.4000001,2.4000001 0 0 0 -1.67188,0.75976 l -8.91601,9.53125 a 2.4002401,2.4002401 0 0 0 -0.64844,1.63867 v 8.91602 a 2.4002401,2.4002401 0 0 0 0.90039,1.875 l 7.6875,6.14844 a 2.4000001,2.4000001 0 0 0 3.37305,-0.375 2.4000001,2.4000001 0 0 0 -0.375,-3.37305 l -6.78516,-5.42773 v -6.81446 l 8.26758,-8.83984 a 2.4000001,2.4000001 0 0 0 -0.11328,-3.39258 2.4000001,2.4000001 0 0 0 -1.71875,-0.64648 z"
     id="path93" /><path
     style="baseline-shift:baseline;display:inline;overflow:visible;vector-effect:none;fill:#997f66;stroke-linecap:round;stroke-linejoin:round;paint-order:stroke fill markers;enable-background:accumulate;stop-color:#000000;stop-opacity:1;opacity:1"
     d="m 117.75977,196.41211 -10.41016,7.87109 a 2.4002401,2.4002401 0 0 0 -0.91797,1.50586 l -1.52148,8.78516 a 2.4002401,2.4002401 0 0 0 0.56836,2 l 6.52539,7.36914 a 2.4000001,2.4000001 0 0 0 3.38867,0.20703 2.4000001,2.4000001 0 0 0 0.20508,-3.38867 l -5.75977,-6.50586 1.16211,-6.71484 9.6543,-7.30079 a 2.4000001,2.4000001 0 0 0 0.46679,-3.36132 2.4000001,2.4000001 0 0 0 -3.36132,-0.4668 z"
     id="path94" /><metadata
     id="metadata74"><rdf:RDF><cc:Work
         rdf:about=""><dc:title>blook_goldfish</dc:title></cc:Work></rdf:RDF></metadata><path
     class="cls-4"
     d="M 263.62,298.39002 H 36.38 A 36.38,36.38 0 0 1 0,262.00002 v 46.61 a 36.38,36.38 0 0 0 36.38,36.39 h 227.24 a 36.38,36.38 0 0 0 36.38,-36.38 v -46.62 a 36.38,36.38 0 0 1 -36.38,36.39 z"
     id="path95"
     style="fill:url(#linearGradient95)" /></svg>
